<svg width="71" height="80" viewBox="0 0 71 80" fill="none" xmlns="http://www.w3.org/2000/svg">
<path d="M6.41714 72.0029L0 0H70.5371L64.1114 71.9914L35.2257 80L6.41714 72.0029Z" fill="#FEFCFC"/>
<path d="M35.2686 73.8801L58.6114 67.4087L64.1028 5.88867H35.2686V73.8801Z" fill="#FEFCFC"/>
<path d="M35.2686 31.9739H46.9543L47.76 22.931H35.2686V14.0996H35.3H57.4114L57.2 16.4682L55.0314 40.8053H35.2686V31.9739Z" fill="#1572B6"/>
<path d="M35.3229 54.9083L35.2829 54.9197L25.4486 52.2626L24.8201 45.2197H20.0401H15.9543L17.1915 59.0854L35.2801 64.1083L35.3229 64.0969V54.9083Z" fill="#1572B6"/>
<path d="M46.2028 40.4316L45.14 52.2574L35.2914 54.9145V64.1031L53.3942 59.0859L53.5285 57.5945L55.0628 40.4316H46.2028Z" fill="#1572B6"/>
<path d="M35.3 14.0996V19.5853V22.9082V22.931H13.9971H13.9686L13.7914 20.9453L13.3886 16.4682L13.1771 14.0996H35.3Z" fill="#1572B6"/>
<path d="M35.2686 31.9736V37.4593V40.7822V40.8051H25.5858H25.5572L25.38 38.8193L24.98 34.3422L24.7686 31.9736H35.2686Z" fill="#1572B6"/>
</svg>
