<svg width="138" height="141" viewBox="0 0 138 141" fill="none" xmlns="http://www.w3.org/2000/svg">
<path d="M71.9867 128.818C76.9027 124.873 122.553 80.4795 123.063 79.9941C125.079 77.978 126.349 75.8871 126.697 73.9705C127.058 71.9792 126.448 70.2368 124.83 68.6189C123.325 67.113 121.483 66.3165 119.504 66.3165C117.089 66.3165 114.613 67.4615 112.547 69.5399L91.8498 89.4278C91.4889 89.7763 91.0159 89.9506 90.5555 89.9506C90.0701 89.9506 89.5972 89.7639 89.2362 89.4029C88.5144 88.6811 88.5144 87.5112 89.2238 86.7894L122.267 52.6638C125.577 49.3532 127.133 44.2879 123.2 40.3551C121.694 38.8492 119.852 38.0527 117.873 38.0527C115.459 38.0527 112.982 39.1977 110.916 41.2761L77.1143 74.2319C76.7534 74.5803 76.2804 74.767 75.8075 74.767C75.3346 74.767 74.8492 74.5803 74.4883 74.2194C73.7664 73.4976 73.754 72.3277 74.4758 71.5934L115.073 29.9756C116.952 28.0963 118.085 25.8436 118.284 23.6532C118.471 21.4255 117.687 19.3595 116.007 17.6794C114.501 16.1735 112.659 15.377 110.68 15.377C108.265 15.377 105.789 16.522 103.723 18.5879L62.3166 58.9612C61.9556 59.3097 61.4827 59.4964 61.0098 59.4964C60.5369 59.4964 60.0515 59.3097 59.6906 58.9487C58.9687 58.2269 58.9563 57.057 59.6781 56.3227L89.7465 25.4205C91.6382 23.5288 92.7708 21.2886 92.9575 19.0982C93.1441 16.8704 92.3601 14.8045 90.6799 13.1243C89.174 11.6184 87.3321 10.8219 85.3532 10.8219C82.9388 10.8219 80.4621 11.9669 78.3962 14.0453C67.3694 24.8729 38.5829 53.1865 37.6122 54.2319C33.9159 56.7832 33.1691 52.9251 32.9825 50.4236C32.7709 47.5113 36.1063 37.3433 34.1648 28.1959C30.9041 16.0366 21.5077 18.0279 21.2961 18.1274C16.1437 20.5419 17.1269 24.1511 18.9563 31.4068L19.143 32.838C21.0596 42.3215 7.89227 70.4235 6.92152 72.5268C1.75663 83.8274 -4.19234 106.74 15.5089 126.441C37.1019 148.034 63.8349 136.97 71.9867 128.818Z" fill="url(#paint0_radial_580_633)"/>
<path d="M44.283 140.94C57.525 140.94 68.7882 134.605 73.2313 130.212C77.2263 126.951 102.441 102.608 122.976 82.6824C123.81 81.8734 124.295 81.4129 124.345 81.3507C126.672 79.0234 128.116 76.5965 128.527 74.3065C129 71.7054 128.191 69.3532 126.15 67.2997C124.283 65.4329 121.993 64.4497 119.504 64.4497C116.579 64.4497 113.642 65.7938 111.227 68.2207L90.5555 88.0837L123.611 53.9581C127.419 50.1498 129.336 43.8399 124.519 39.0359C122.652 37.1691 120.362 36.1859 117.873 36.1859C114.949 36.1859 112.012 37.53 109.597 39.9569L75.82 72.8878L116.405 31.2824C118.57 29.1168 119.902 26.4659 120.138 23.8275C120.375 21.0148 119.404 18.4386 117.326 16.3602C115.459 14.4933 113.169 13.5101 110.68 13.5101C107.768 13.5101 104.83 14.8418 102.404 17.2687L61.0098 57.6295L91.0782 26.7273C93.2561 24.5493 94.5878 21.8984 94.8118 19.26C95.0483 16.4597 94.0775 13.8835 91.9991 11.8051C90.1323 9.93827 87.8423 8.95508 85.3532 8.95508C82.4285 8.95508 79.4914 10.2992 77.077 12.7261L68.1037 21.5251C52.1112 37.2064 38.7447 50.3365 37.3135 51.805C36.6166 52.3651 35.708 52.5766 35.3222 52.39C35.0733 52.2655 34.7995 51.693 34.8493 50.4858C34.924 48.3701 35.2227 45.7441 35.5338 42.9687C36.1561 37.3931 36.8032 31.6184 35.9943 27.8101C34.227 21.2015 30.7547 18.4012 28.166 17.194C24.6066 15.5512 21.1592 16.1237 20.4996 16.4348C14.0279 19.4715 15.3098 24.5493 17.0771 31.5935L17.1144 31.7677L17.3135 33.2239C18.6079 39.596 11.962 57.2064 5.31606 71.5561L5.2165 71.7552C0.773443 81.4627 -7.22904 106.366 14.1773 127.773C24.0217 137.592 34.6751 140.94 44.283 140.94ZM119.504 68.1833C120.972 68.1833 122.366 68.7932 123.511 69.9382C124.694 71.1205 125.104 72.2655 124.855 73.6345C124.582 75.1404 123.474 76.9325 121.744 78.6749C121.732 78.6874 121.234 79.1727 120.375 79.9941C91.2275 108.283 73.6295 125.097 70.8169 127.362L70.6675 127.499C63.7976 134.369 38.2718 146.565 16.8282 125.122C-2.92288 105.371 4.5071 82.309 8.62657 73.2985L8.71369 73.1118C12.9949 63.8772 22.7274 41.4752 20.9974 32.5394L20.7112 30.6725C18.7946 23.0559 18.6826 21.4628 21.9308 19.8947C22.8891 19.7205 29.7591 18.8866 32.3851 28.6812C33.0447 31.8051 32.41 37.5176 31.8499 42.558C31.5263 45.408 31.2277 48.1087 31.153 50.3613C31.0285 53.9083 32.7087 55.2649 33.7292 55.7627C35.8076 56.7708 38.2843 55.9121 39.8275 54.6177L39.9893 54.4684C40.7485 53.647 58.8069 35.937 70.7546 24.2133L79.7403 15.3894C82.8019 12.3154 86.7471 11.8051 89.398 14.456C90.6924 15.7503 91.2773 17.2687 91.1404 18.9488C90.9911 20.7037 90.0452 22.5331 88.4646 24.1137L58.334 55.016C56.9152 56.4597 56.9152 58.8243 58.3589 60.268C59.7403 61.6494 62.1797 61.6743 63.5985 60.3053L105.03 19.9196C108.091 16.858 112.049 16.3477 114.687 18.9986C115.982 20.293 116.567 21.8113 116.43 23.4915C116.268 25.2463 115.322 27.0882 113.754 28.6439L73.1442 70.2866C71.7129 71.7303 71.7254 74.095 73.1691 75.5386C74.5505 76.9201 76.9898 76.945 78.4086 75.576L112.223 42.6078C115.285 39.5213 119.242 39.0235 121.881 41.6744C125.104 44.8978 123.387 48.8928 120.947 51.3445L87.8797 85.4951C86.4609 86.9387 86.4733 89.291 87.917 90.7222C89.3109 92.1161 91.7253 92.1285 93.1441 90.772L113.841 70.884C115.583 69.1292 117.587 68.1833 119.504 68.1833Z" fill="#EDA600"/>
<path d="M40.5867 53.0247C47.4193 66.9761 46.5356 86.5031 36.2805 102.172C35.1231 104.288 33.1442 103.255 34.1523 101.077C46.5356 74.5803 33.5549 55.4889 33.5549 55.4889L40.5867 53.0247Z" fill="#EDA600"/>
<path d="M67.4566 0.703663C63.698 -0.279534 59.6905 -0.192415 55.7951 0.716109C51.9245 1.64952 48.054 3.61592 45.1791 6.82686C42.3664 10.0129 40.6364 13.8835 40.0515 17.9407C39.5039 21.9606 40.0142 26.105 41.9183 29.5399C42.1424 25.6818 42.8144 22.1349 43.947 18.8617C44.5319 17.2313 45.2164 15.6756 46.0502 14.2071C46.8717 12.7509 47.8424 11.3073 48.8754 10.1249C50.9787 7.69805 53.8287 5.80633 57.0272 4.33776C60.2381 2.8194 63.7353 1.69931 67.4566 0.703663Z" fill="#B0BEC5"/>
<path d="M66.4236 12.5021C64.3452 11.1828 61.7441 10.909 59.2923 11.3446C56.8156 11.7802 54.451 13.0123 52.5841 14.7174C50.7298 16.4473 49.4105 18.6253 48.5891 20.8904C48.1909 22.0229 47.9918 23.2177 47.8051 24.3751C47.7428 25.5699 47.7428 26.7646 47.9295 27.9594C48.7883 27.0509 49.4603 26.1424 50.095 25.2587C50.8293 24.4249 51.4018 23.5413 52.0614 22.7323C53.3558 21.1268 54.6128 19.6707 55.9693 18.3764C57.3632 17.1194 58.8318 16.0117 60.5368 15.0534C62.2294 14.0702 64.1336 13.2488 66.4236 12.5021Z" fill="#90A4AE"/>
<path d="M137.575 91.3567C135.82 94.7917 133.99 97.9777 131.862 100.79C129.746 103.603 127.32 105.993 124.494 107.548C123.125 108.308 121.495 108.967 119.902 109.465C118.297 109.975 116.629 110.324 114.911 110.56C111.476 110.983 107.867 110.909 104.046 110.324C107.008 112.9 110.966 114.269 114.998 114.568C119.081 114.841 123.225 113.958 126.934 111.867C130.667 109.739 133.405 106.354 135.123 102.757C136.84 99.1351 137.761 95.2397 137.575 91.3567Z" fill="#B0BEC5"/>
<path d="M125.814 89.9006C124.606 91.9915 123.412 93.6716 122.105 95.1402C120.811 96.6088 119.417 97.816 117.898 98.9112C116.355 99.9691 114.662 100.902 112.821 101.836C111.9 102.309 110.916 102.682 109.946 103.23C108.938 103.665 107.917 104.126 106.847 104.785C107.979 105.209 109.137 105.458 110.319 105.644C111.489 105.694 112.696 105.756 113.891 105.594C116.28 105.271 118.67 104.437 120.761 102.981C122.814 101.5 124.519 99.4464 125.453 97.119C126.399 94.8042 126.672 92.2155 125.814 89.9006Z" fill="#90A4AE"/>
<defs>
<radialGradient id="paint0_radial_580_633" cx="0" cy="0" r="1" gradientUnits="userSpaceOnUse" gradientTransform="translate(91.2571 42.396) rotate(-135) scale(113.264)">
<stop offset="0.3533" stop-color="#FFCA28"/>
<stop offset="0.8723" stop-color="#FFB300"/>
</radialGradient>
</defs>
</svg>
