<svg width="71" height="80" viewBox="0 0 71 80" fill="none" xmlns="http://www.w3.org/2000/svg">
<path d="M6.42 72.0029L0 0H70.5428L64.1143 71.9914L35.2286 80L6.42 72.0029Z" fill="#FEFCFC"/>
<path d="M35.2715 73.8801L58.6143 67.4087L64.1058 5.88867H35.2715V73.8801Z" fill="#FEFCFC"/>
<path d="M35.2715 32.5911H23.5858L22.7801 23.5482H35.2715V14.7168H35.2401H13.1287L13.3401 17.0882L15.5087 41.4225H35.2715V32.5911Z" fill="#D6451D"/>
<path d="M35.2714 55.5256L35.2314 55.537L25.3971 52.8827L24.7685 45.8398H19.9885H15.9028L17.14 59.7027L35.2314 64.7256L35.2714 64.7141V55.5256Z" fill="#D6451D"/>
<path d="M35.24 32.5908V41.4222H46.1143L45.0914 52.8765L35.24 55.5337V64.7222L53.3457 59.7022L53.4771 58.2108L55.5514 34.9623L55.7686 32.5908H53.3886H35.24Z" fill="#D6451D"/>
<path d="M35.24 14.7168V20.2025V23.5282V23.5482H56.5428H56.5714L56.7486 21.5654L57.1514 17.0882L57.3628 14.7168H35.24Z" fill="#D6451D"/>
</svg>
