<?xml version="1.0" encoding="utf-8"?>
<!-- Generator: Adobe Illustrator 25.2.0, SVG Export Plug-In . SVG Version: 6.00 Build 0)  -->
<svg version="1.1" xmlns="http://www.w3.org/2000/svg" xmlns:xlink="http://www.w3.org/1999/xlink" x="0px" y="0px"
	 viewBox="0 0 1080 1080" style="enable-background:new 0 0 1080 1080;" xml:space="preserve">
<style type="text/css">
	.st0{display:none;}
	.st1{display:inline;fill:#C69C6D;}
	.st2{fill:url(#SVGID_1_);}
	.st3{opacity:0.39;}
	.st4{fill:url(#SVGID_2_);}
	.st5{display:inline;}
	.st6{fill:url(#SVGID_3_);}
	.st7{fill:url(#SVGID_4_);}
	.st8{fill:url(#SVGID_5_);}
</style>
<g id="Layer_1" class="st0">
	<rect x="-17.94" y="-65.64" class="st1" width="1152" height="1211.29"/>
	<line class="st1" x1="523.12" y1="423.76" x2="523.12" y2="384.76"/>
</g>
<g id="Layer_3">
	<g>
		<linearGradient id="SVGID_1_" gradientUnits="userSpaceOnUse" x1="371.1952" y1="401.9482" x2="679.7802" y2="767.4603">
			<stop  offset="0" style="stop-color:#1BCEDF"/>
			<stop  offset="0.1479" style="stop-color:#1DCADD"/>
			<stop  offset="0.3017" style="stop-color:#21BDD5"/>
			<stop  offset="0.4583" style="stop-color:#29A9C9"/>
			<stop  offset="0.6168" style="stop-color:#348BB7"/>
			<stop  offset="0.7768" style="stop-color:#4266A1"/>
			<stop  offset="0.9358" style="stop-color:#533986"/>
			<stop  offset="1" style="stop-color:#5B247A"/>
		</linearGradient>
		<path class="st2" d="M300.82,339.44v221.5c141.86,0,256.86,115,256.86,256.86h221.5C779.18,553.6,565.02,339.44,300.82,339.44z"/>
		<path class="st3" d="M526.93,695.82c0,0,118.78-56.56,169.41-147.16c0,0-6.44-11.18-10.56-14.27
			c-4.13-3.09-174.32,138.9-174.32,138.9S521.63,685.46,526.93,695.82z"/>
		
			<linearGradient id="SVGID_2_" gradientUnits="userSpaceOnUse" x1="371.1952" y1="102.4188" x2="679.7802" y2="467.9309" gradientTransform="matrix(1 0 0 -1 0 780.4706)">
			<stop  offset="0" style="stop-color:#1BCEDF"/>
			<stop  offset="0.1479" style="stop-color:#1DCADD"/>
			<stop  offset="0.3017" style="stop-color:#21BDD5"/>
			<stop  offset="0.4583" style="stop-color:#29A9C9"/>
			<stop  offset="0.6168" style="stop-color:#348BB7"/>
			<stop  offset="0.7768" style="stop-color:#4266A1"/>
			<stop  offset="0.9358" style="stop-color:#533986"/>
			<stop  offset="1" style="stop-color:#5B247A"/>
		</linearGradient>
		<path class="st4" d="M779.18,262.2h-221.5c0,141.86-115,256.86-256.86,256.86v221.5C565.02,740.56,779.18,526.4,779.18,262.2z"/>
	</g>
</g>
<g id="Layer_4" class="st0">
	<g class="st5">
		<linearGradient id="SVGID_3_" gradientUnits="userSpaceOnUse" x1="883.8444" y1="892.5301" x2="989.4337" y2="1017.5983">
			<stop  offset="0" style="stop-color:#1BCEDF"/>
			<stop  offset="0.1479" style="stop-color:#1DCADD"/>
			<stop  offset="0.3017" style="stop-color:#21BDD5"/>
			<stop  offset="0.4583" style="stop-color:#29A9C9"/>
			<stop  offset="0.6168" style="stop-color:#348BB7"/>
			<stop  offset="0.7768" style="stop-color:#4266A1"/>
			<stop  offset="0.9358" style="stop-color:#533986"/>
			<stop  offset="1" style="stop-color:#5B247A"/>
		</linearGradient>
		<path class="st6" d="M859.76,871.14v75.79c48.54,0,87.89,39.35,87.89,87.89h75.79C1023.44,944.42,950.16,871.14,859.76,871.14z"/>
		<linearGradient id="SVGID_4_" gradientUnits="userSpaceOnUse" x1="718.8088" y1="786.9476" x2="858.2249" y2="952.0829">
			<stop  offset="0" style="stop-color:#1BCEDF"/>
			<stop  offset="0.4918" style="stop-color:#3D73A9"/>
			<stop  offset="0.8353" style="stop-color:#533A87"/>
			<stop  offset="1" style="stop-color:#5B247A"/>
		</linearGradient>
		<rect x="751.99" y="703.85" class="st7" width="75.79" height="334.59"/>
		<linearGradient id="SVGID_5_" gradientUnits="userSpaceOnUse" x1="958.1288" y1="714.3217" x2="1011.9112" y2="768.1041">
			<stop  offset="0" style="stop-color:#1BCEDF"/>
			<stop  offset="0.4273" style="stop-color:#3588B5"/>
			<stop  offset="1" style="stop-color:#5B247A"/>
		</linearGradient>
		<rect x="947.65" y="703.85" class="st8" width="75.79" height="75.79"/>
	</g>
</g>
</svg>
